<?xml version="1.0" encoding="UTF-8"?>
<!DOCTYPE svg PUBLIC "-//W3C//DTD SVG 1.1//EN" "http://www.w3.org/Graphics/SVG/1.1/DTD/svg11.dtd">
<svg xmlns="http://www.w3.org/2000/svg" version="1.1" width="72px" height="72px" style="shape-rendering:geometricPrecision; text-rendering:geometricPrecision; image-rendering:optimizeQuality; fill-rule:evenodd; clip-rule:evenodd" xmlns:xlink="http://www.w3.org/1999/xlink">
<g><path style="opacity:1" fill="#49a8c9" d="M 30.5,15.5 C 33.8333,14.1667 37.1667,14.1667 40.5,15.5C 38.4862,15.3915 36.8195,16.0582 35.5,17.5C 34.3684,16.6457 33.035,16.6457 31.5,17.5C 31.1667,16.8333 30.8333,16.1667 30.5,15.5 Z"/></g>
<g><path style="opacity:1" fill="#51bcd0" d="M 27.5,15.5 C 29.6204,16.4033 29.9538,17.7367 28.5,19.5C 28.5,20.8333 28.5,22.1667 28.5,23.5C 28.1667,23.5 27.8333,23.5 27.5,23.5C 26.6618,23.1583 26.3284,22.4916 26.5,21.5C 26.5,21.1667 26.5,20.8333 26.5,20.5C 26.5,19.1667 26.5,17.8333 26.5,16.5C 26.5,15.8333 26.8333,15.5 27.5,15.5 Z"/></g>
<g><path style="opacity:1" fill="#53afcd" d="M 42.5,17.5 C 42.8417,16.6618 43.5084,16.3284 44.5,16.5C 46.4832,16.1568 47.8166,16.8235 48.5,18.5C 47.5,19.1667 46.5,19.8333 45.5,20.5C 44.8333,20.5 44.5,20.8333 44.5,21.5C 45.2623,23.2624 46.5956,24.2624 48.5,24.5C 48.8333,24.5 49.1667,24.5 49.5,24.5C 49.1667,25.1667 48.8333,25.8333 48.5,26.5C 47.5,26.5 46.5,26.5 45.5,26.5C 45.1667,25.5 44.5,24.8333 43.5,24.5C 43.5,23.1667 42.8333,22.5 41.5,22.5C 41.5,21.5 41.5,20.5 41.5,19.5C 44.8531,19.6547 45.1864,18.9881 42.5,17.5 Z"/></g>
<g><path style="opacity:1" fill="#49becb" d="M 26.5,16.5 C 26.5,17.8333 26.5,19.1667 26.5,20.5C 25.8333,20.1667 25.1667,19.8333 24.5,19.5C 24.1667,19.5 23.8333,19.5 23.5,19.5C 23.1583,18.6618 22.4916,18.3284 21.5,18.5C 22.7804,17.0687 24.4471,16.4021 26.5,16.5 Z"/></g>
<g><path style="opacity:1" fill="#4db0ca" d="M 27.5,15.5 C 28.3478,14.375 29.3478,14.375 30.5,15.5C 30.8333,16.1667 31.1667,16.8333 31.5,17.5C 31.5,18.1667 31.8333,18.5 32.5,18.5C 32.5,18.8333 32.5,19.1667 32.5,19.5C 31.8333,19.5 31.1667,19.5 30.5,19.5C 29.8333,19.5 29.1667,19.5 28.5,19.5C 29.9538,17.7367 29.6204,16.4033 27.5,15.5 Z"/></g>
<g><path style="opacity:1" fill="#4fa8c8" d="M 40.5,15.5 C 42.099,15.2322 43.4324,15.5655 44.5,16.5C 43.5084,16.3284 42.8417,16.6618 42.5,17.5C 45.1864,18.9881 44.8531,19.6547 41.5,19.5C 41.5,20.5 41.5,21.5 41.5,22.5C 41.8333,23.5 42.5,24.1667 43.5,24.5C 43.5,25.1667 43.5,25.8333 43.5,26.5C 42.8333,27.1667 42.1667,27.8333 41.5,28.5C 38.8333,28.5 36.1667,28.5 33.5,28.5C 35.9479,27.5269 38.6146,27.1936 41.5,27.5C 41.7373,26.209 41.404,25.209 40.5,24.5C 40.2504,23.0779 39.417,22.0779 38,21.5C 37.0228,22.7736 36.1894,22.7736 35.5,21.5C 36.3382,21.1583 36.6716,20.4916 36.5,19.5C 36.8333,19.5 37.1667,19.5 37.5,19.5C 37.8417,20.3382 38.5084,20.6716 39.5,20.5C 40.6441,21.1826 40.6441,20.8493 39.5,19.5C 40.2341,18.2921 40.5674,16.9587 40.5,15.5 Z"/></g>
<g><path style="opacity:1" fill="#54b2d0" d="M 40.5,15.5 C 40.5674,16.9587 40.2341,18.2921 39.5,19.5C 39.5,19.8333 39.5,20.1667 39.5,20.5C 38.5084,20.6716 37.8417,20.3382 37.5,19.5C 37.1667,18.1667 36.8333,18.1667 36.5,19.5C 35.8333,19.5 35.5,19.8333 35.5,20.5C 34.609,21.1098 33.609,21.4431 32.5,21.5C 32.5,20.8333 32.5,20.1667 32.5,19.5C 32.5,19.1667 32.5,18.8333 32.5,18.5C 33.609,18.4431 34.609,18.1098 35.5,17.5C 36.8195,16.0582 38.4862,15.3915 40.5,15.5 Z"/></g>
<g><path style="opacity:1" fill="#50aac9" d="M 30.5,19.5 C 31.1667,19.5 31.8333,19.5 32.5,19.5C 32.5,20.1667 32.5,20.8333 32.5,21.5C 32.5,21.8333 32.5,22.1667 32.5,22.5C 32.5,22.8333 32.5,23.1667 32.5,23.5C 31.5084,23.3284 30.8417,23.6618 30.5,24.5C 29.8333,24.5 29.5,24.1667 29.5,23.5C 31.1376,22.2954 31.4709,20.9621 30.5,19.5 Z"/></g>
<g><path style="opacity:1" fill="#4da6c7" d="M 48.5,18.5 C 50.4044,18.7376 51.7377,19.7376 52.5,21.5C 51.8333,21.5 51.1667,21.5 50.5,21.5C 48.9519,21.8212 48.2852,22.8212 48.5,24.5C 46.5956,24.2624 45.2623,23.2624 44.5,21.5C 45.1667,21.5 45.5,21.1667 45.5,20.5C 46.5,19.8333 47.5,19.1667 48.5,18.5 Z"/></g>
<g><path style="opacity:1" fill="#4ec7cd" d="M 21.5,18.5 C 22.4916,18.3284 23.1583,18.6618 23.5,19.5C 22.5,19.8333 21.8333,20.5 21.5,21.5C 21.9175,22.2216 22.5842,22.7216 23.5,23C 21.8807,23.2355 20.8807,24.0689 20.5,25.5C 19.8333,25.1667 19.1667,24.8333 18.5,24.5C 19.8146,23.1054 19.4812,22.1054 17.5,21.5C 18.795,20.5116 20.1283,19.5116 21.5,18.5 Z"/></g>
<g><path style="opacity:1" fill="#52a9ca" d="M 50.5,21.5 C 51.1667,21.5 51.8333,21.5 52.5,21.5C 53.8333,22.1667 54.8333,23.1667 55.5,24.5C 54.5,24.5 53.5,24.5 52.5,24.5C 52.5,23.8333 52.1667,23.5 51.5,23.5C 51.1667,22.8333 50.8333,22.1667 50.5,21.5 Z"/></g>
<g><path style="opacity:1" fill="#4b9ebc" d="M 26.5,21.5 C 26.3284,22.4916 26.6618,23.1583 27.5,23.5C 27.5,24.1667 27.8333,24.5 28.5,24.5C 28.5,25.1667 28.1667,25.5 27.5,25.5C 27.1667,25.5 26.8333,25.5 26.5,25.5C 25.8333,25.5 25.1667,25.5 24.5,25.5C 24.5,24.8333 24.5,24.1667 24.5,23.5C 25.1667,23.5 25.5,23.1667 25.5,22.5C 25.5,21.8333 25.8333,21.5 26.5,21.5 Z"/></g>
<g><path style="opacity:1" fill="#53ccd1" d="M 17.5,21.5 C 19.4812,22.1054 19.8146,23.1054 18.5,24.5C 18.6716,25.4916 18.3382,26.1583 17.5,26.5C 17.4431,25.391 17.1098,24.391 16.5,23.5C 16.3284,22.5084 16.6618,21.8417 17.5,21.5 Z"/></g>
<g><path style="opacity:1" fill="#4ebec7" d="M 24.5,19.5 C 25.1667,19.8333 25.8333,20.1667 26.5,20.5C 26.5,20.8333 26.5,21.1667 26.5,21.5C 25.8333,21.5 25.5,21.8333 25.5,22.5C 24.8333,22.5 24.5,22.8333 24.5,23.5C 24.5,24.1667 24.5,24.8333 24.5,25.5C 23.8333,25.5 23.1667,25.5 22.5,25.5C 22.1667,24.1667 21.8333,24.1667 21.5,25.5C 21.1667,25.5 20.8333,25.5 20.5,25.5C 20.8807,24.0689 21.8807,23.2355 23.5,23C 22.5842,22.7216 21.9175,22.2216 21.5,21.5C 23.0269,21.573 24.0269,20.9063 24.5,19.5 Z"/></g>
<g><path style="opacity:1" fill="#53b1ce" d="M 35.5,20.5 C 35.5,20.8333 35.5,21.1667 35.5,21.5C 36.1894,22.7736 37.0228,22.7736 38,21.5C 39.417,22.0779 40.2504,23.0779 40.5,24.5C 37.2791,24.9819 33.9458,24.9819 30.5,24.5C 30.8417,23.6618 31.5084,23.3284 32.5,23.5C 35.1667,23.1667 35.1667,22.8333 32.5,22.5C 32.5,22.1667 32.5,21.8333 32.5,21.5C 33.609,21.4431 34.609,21.1098 35.5,20.5 Z"/></g>
<g><path style="opacity:1" fill="#57b2d1" d="M 52.5,24.5 C 53.5,24.5 54.5,24.5 55.5,24.5C 55.5,24.8333 55.5,25.1667 55.5,25.5C 55.6716,26.4916 55.3382,27.1583 54.5,27.5C 54.1667,27.5 53.8333,27.5 53.5,27.5C 53.1667,27.5 52.8333,27.5 52.5,27.5C 52.5,26.5 52.5,25.5 52.5,24.5 Z"/></g>
<g><path style="opacity:1" fill="#51bbcb" d="M 18.5,24.5 C 19.1667,24.8333 19.8333,25.1667 20.5,25.5C 20.8333,25.5 21.1667,25.5 21.5,25.5C 21.8333,25.5 22.1667,25.5 22.5,25.5C 22.5,26.8333 21.8333,27.5 20.5,27.5C 19.794,26.4427 19.4607,26.7761 19.5,28.5C 18.8333,28.1667 18.1667,27.8333 17.5,27.5C 17.5,27.1667 17.5,26.8333 17.5,26.5C 18.3382,26.1583 18.6716,25.4916 18.5,24.5 Z"/></g>
<g><path style="opacity:1" fill="#4eabc9" d="M 30.5,25.5 C 30.5,25.1667 30.5,24.8333 30.5,24.5C 33.9458,24.9819 37.2791,24.9819 40.5,24.5C 41.404,25.209 41.7373,26.209 41.5,27.5C 38.6146,27.1936 35.9479,27.5269 33.5,28.5C 35.2646,29.4614 37.2646,29.7947 39.5,29.5C 39.7678,31.099 39.4345,32.4324 38.5,33.5C 38.1667,33.5 37.8333,33.5 37.5,33.5C 37.6107,32.8826 37.944,32.3826 38.5,32C 36.5273,31.5045 34.5273,31.3379 32.5,31.5C 31.5655,30.4324 31.2322,29.099 31.5,27.5C 33.0311,26.0755 32.6977,25.4088 30.5,25.5 Z"/></g>
<g><path style="opacity:1" fill="#4ca4c7" d="M 51.5,23.5 C 52.1667,23.5 52.5,23.8333 52.5,24.5C 52.5,25.5 52.5,26.5 52.5,27.5C 52.5,28.1667 52.1667,28.5 51.5,28.5C 51.2893,26.5759 50.6226,26.2426 49.5,27.5C 48.8333,27.5 48.5,27.1667 48.5,26.5C 48.8333,25.8333 49.1667,25.1667 49.5,24.5C 49.8417,23.6618 50.5084,23.3284 51.5,23.5 Z"/></g>
<g><path style="opacity:1" fill="#4db5c8" d="M 22.5,25.5 C 23.1667,25.5 23.8333,25.5 24.5,25.5C 25.1667,25.5 25.8333,25.5 26.5,25.5C 26.5,25.8333 26.5,26.1667 26.5,26.5C 24.9685,27.6774 23.4685,29.0107 22,30.5C 21.6174,29.944 21.1174,29.6107 20.5,29.5C 20.5,29.1667 20.5,28.8333 20.5,28.5C 20.5,28.1667 20.5,27.8333 20.5,27.5C 21.8333,27.5 22.5,26.8333 22.5,25.5 Z"/></g>
<g><path style="opacity:1" fill="#4fafcd" d="M 28.5,23.5 C 28.8333,23.5 29.1667,23.5 29.5,23.5C 29.5,24.1667 29.8333,24.5 30.5,24.5C 30.5,24.8333 30.5,25.1667 30.5,25.5C 29.2651,27.017 29.2651,28.6837 30.5,30.5C 30.0431,31.2975 29.3764,31.6309 28.5,31.5C 27.8333,30.5 27.1667,29.5 26.5,28.5C 27.404,27.791 27.7373,26.791 27.5,25.5C 28.1667,25.5 28.5,25.1667 28.5,24.5C 28.5,24.1667 28.5,23.8333 28.5,23.5 Z"/></g>
<g><path style="opacity:1" fill="#51a5c6" d="M 45.5,26.5 C 46.5,26.5 47.5,26.5 48.5,26.5C 48.5,27.1667 48.8333,27.5 49.5,27.5C 50.1667,27.8333 50.8333,28.1667 51.5,28.5C 52.1667,28.5 52.5,28.1667 52.5,27.5C 52.8333,27.5 53.1667,27.5 53.5,27.5C 53.3284,28.4916 53.6618,29.1583 54.5,29.5C 55.1667,29.5 55.5,29.8333 55.5,30.5C 53.7839,30.3713 52.1172,30.038 50.5,29.5C 50.1667,29.5 49.8333,29.5 49.5,29.5C 49.1667,29.5 48.8333,29.5 48.5,29.5C 47.4523,27.0673 46.7856,27.0673 46.5,29.5C 46.1667,29.5 45.8333,29.5 45.5,29.5C 44.8333,29.5 44.5,29.1667 44.5,28.5C 44.3284,27.5084 44.6618,26.8417 45.5,26.5 Z M 48.5,29.5 C 47.8333,29.5 47.1667,29.5 46.5,29.5C 46.7856,27.0673 47.4523,27.0673 48.5,29.5 Z"/></g>
<g><path style="opacity:1" fill="#50bdcb" d="M 16.5,23.5 C 17.1098,24.391 17.4431,25.391 17.5,26.5C 16.5,26.8333 15.8333,27.5 15.5,28.5C 14.8333,29.1667 14.1667,29.8333 13.5,30.5C 13.5,29.8333 13.5,29.1667 13.5,28.5C 13.7497,26.326 14.7497,24.6594 16.5,23.5 Z"/></g>
<g><path style="opacity:1" fill="#54aac9" d="M 55.5,25.5 C 56.3077,27.2202 57.3077,28.8869 58.5,30.5C 57.391,30.5569 56.391,30.8902 55.5,31.5C 55.5,31.1667 55.5,30.8333 55.5,30.5C 55.5,29.8333 55.1667,29.5 54.5,29.5C 54.5,28.8333 54.5,28.1667 54.5,27.5C 55.3382,27.1583 55.6716,26.4916 55.5,25.5 Z"/></g>
<g><path style="opacity:1" fill="#4eb6ca" d="M 17.5,27.5 C 18.1667,27.8333 18.8333,28.1667 19.5,28.5C 19.8333,28.5 20.1667,28.5 20.5,28.5C 20.5,28.8333 20.5,29.1667 20.5,29.5C 20.5,29.8333 20.5,30.1667 20.5,30.5C 20.1667,30.5 19.8333,30.5 19.5,30.5C 19.0623,29.4937 18.3957,29.4937 17.5,30.5C 17.1667,30.5 16.8333,30.5 16.5,30.5C 15.8333,30.5 15.5,30.8333 15.5,31.5C 14.5084,31.6716 13.8417,31.3382 13.5,30.5C 14.1667,29.8333 14.8333,29.1667 15.5,28.5C 16.4916,28.6716 17.1583,28.3382 17.5,27.5 Z"/></g>
<g><path style="opacity:1" fill="#51b0ca" d="M 26.5,26.5 C 25.4937,27.3957 25.4937,28.0623 26.5,28.5C 27.1667,29.5 27.8333,30.5 28.5,31.5C 28.1667,31.5 27.8333,31.5 27.5,31.5C 25.7973,30.3398 25.1307,31.0065 25.5,33.5C 25.1583,34.3382 24.4916,34.6716 23.5,34.5C 23.8693,32.0065 23.2027,31.3398 21.5,32.5C 20.8333,32.5 20.5,32.1667 20.5,31.5C 20.5,31.1667 20.5,30.8333 20.5,30.5C 20.5,30.1667 20.5,29.8333 20.5,29.5C 21.1174,29.6107 21.6174,29.944 22,30.5C 23.4685,29.0107 24.9685,27.6774 26.5,26.5 Z"/></g>
<g><path style="opacity:1" fill="#52a4c9" d="M 43.5,26.5 C 43.3284,27.4916 43.6618,28.1583 44.5,28.5C 44.5,29.1667 44.8333,29.5 45.5,29.5C 45.5,29.8333 45.5,30.1667 45.5,30.5C 45.5,31.1667 45.5,31.8333 45.5,32.5C 44.3065,33.2719 43.3065,34.2719 42.5,35.5C 41.8333,35.1667 41.1667,34.8333 40.5,34.5C 41.1408,33.5178 41.8075,32.5178 42.5,31.5C 41.8728,30.5832 41.5394,29.5832 41.5,28.5C 42.1667,27.8333 42.8333,27.1667 43.5,26.5 Z"/></g>
<g><path style="opacity:1" fill="#4ca0c2" d="M 46.5,29.5 C 47.1667,29.5 47.8333,29.5 48.5,29.5C 48.8333,29.5 49.1667,29.5 49.5,29.5C 48.5946,30.7024 48.5946,32.0357 49.5,33.5C 49.1667,33.5 48.8333,33.5 48.5,33.5C 47.791,32.596 46.791,32.2627 45.5,32.5C 45.5,31.8333 45.5,31.1667 45.5,30.5C 46.1667,30.5 46.5,30.1667 46.5,29.5 Z"/></g>
<g><path style="opacity:1" fill="#4891b7" d="M 49.5,29.5 C 49.8333,29.5 50.1667,29.5 50.5,29.5C 50.8333,30.8333 51.1667,32.1667 51.5,33.5C 50.596,34.209 50.2627,35.209 50.5,36.5C 50.5,36.8333 50.5,37.1667 50.5,37.5C 50.1667,37.5 49.8333,37.5 49.5,37.5C 49.5,36.1667 49.5,34.8333 49.5,33.5C 48.5946,32.0357 48.5946,30.7024 49.5,29.5 Z"/></g>
<g><path style="opacity:1" fill="#58b3cf" d="M 50.5,29.5 C 52.1172,30.038 53.7839,30.3713 55.5,30.5C 55.5,30.8333 55.5,31.1667 55.5,31.5C 53.8007,31.5271 52.4674,32.1938 51.5,33.5C 51.1667,32.1667 50.8333,30.8333 50.5,29.5 Z"/></g>
<g><path style="opacity:1" fill="#51b2ca" d="M 13.5,28.5 C 13.5,29.1667 13.5,29.8333 13.5,30.5C 13.8417,31.3382 14.5084,31.6716 15.5,31.5C 15.5,31.8333 15.5,32.1667 15.5,32.5C 14.8333,32.5 14.5,32.8333 14.5,33.5C 13.8333,33.1667 13.1667,32.8333 12.5,32.5C 10.8249,30.544 11.1582,29.2107 13.5,28.5 Z"/></g>
<g><path style="opacity:1" fill="#4fa8c9" d="M 30.5,25.5 C 30.3284,26.4916 30.6618,27.1583 31.5,27.5C 31.2322,29.099 31.5655,30.4324 32.5,31.5C 32.8333,32.1667 33.1667,32.8333 33.5,33.5C 32.1667,33.8333 30.8333,34.1667 29.5,34.5C 28.8333,34.8333 28.1667,35.1667 27.5,35.5C 27.5,35.1667 27.5,34.8333 27.5,34.5C 28.8333,33.5 28.8333,32.5 27.5,31.5C 27.8333,31.5 28.1667,31.5 28.5,31.5C 29.3764,31.6309 30.0431,31.2975 30.5,30.5C 29.2651,28.6837 29.2651,27.017 30.5,25.5 Z"/></g>
<g><path style="opacity:1" fill="#4daac8" d="M 19.5,30.5 C 19.5,31.1667 19.8333,31.5 20.5,31.5C 20.5,32.1667 20.8333,32.5 21.5,32.5C 21.5,33.1667 21.5,33.8333 21.5,34.5C 19.5447,34.2014 18.2114,33.2014 17.5,31.5C 17.5,31.1667 17.5,30.8333 17.5,30.5C 18.3957,29.4937 19.0623,29.4937 19.5,30.5 Z"/></g>
<g><path style="opacity:1" fill="#4ba8cf" d="M 32.5,31.5 C 34.5273,31.3379 36.5273,31.5045 38.5,32C 37.944,32.3826 37.6107,32.8826 37.5,33.5C 36.1667,33.5 34.8333,33.5 33.5,33.5C 33.1667,32.8333 32.8333,32.1667 32.5,31.5 Z"/></g>
<g><path style="opacity:1" fill="#50a4c5" d="M 48.5,33.5 C 48.8333,33.5 49.1667,33.5 49.5,33.5C 49.5,34.8333 49.5,36.1667 49.5,37.5C 48.8333,37.1667 48.1667,36.8333 47.5,36.5C 46.8333,36.5 46.5,36.8333 46.5,37.5C 45.6618,37.1583 45.3284,36.4916 45.5,35.5C 46.2905,34.5987 47.2905,33.9321 48.5,33.5 Z"/></g>
<g><path style="opacity:1" fill="#54a9c8" d="M 55.5,31.5 C 55.8333,32.8333 56.1667,34.1667 56.5,35.5C 56.1667,35.5 55.8333,35.5 55.5,35.5C 54.2931,35.3784 53.6264,36.3784 53.5,38.5C 52.5084,38.3284 51.8417,38.6618 51.5,39.5C 50.6618,39.1583 50.3284,38.4916 50.5,37.5C 50.5,37.1667 50.5,36.8333 50.5,36.5C 52.7957,36.1959 53.129,35.1959 51.5,33.5C 52.4674,32.1938 53.8007,31.5271 55.5,31.5 Z"/></g>
<g><path style="opacity:1" fill="#54aaca" d="M 12.5,32.5 C 13.1667,32.8333 13.8333,33.1667 14.5,33.5C 15.1098,34.391 15.4431,35.391 15.5,36.5C 14.8333,36.8333 14.1667,37.1667 13.5,37.5C 12.6993,35.9582 12.366,34.2915 12.5,32.5 Z"/></g>
<g><path style="opacity:1" fill="#4ca2c7" d="M 25.5,33.5 C 26.1667,33.8333 26.8333,34.1667 27.5,34.5C 27.5,34.8333 27.5,35.1667 27.5,35.5C 26.603,36.5981 25.7697,36.5981 25,35.5C 24.5172,36.448 24.3505,37.448 24.5,38.5C 24.1667,38.5 23.8333,38.5 23.5,38.5C 23.5,38.1667 23.5,37.8333 23.5,37.5C 23.5,36.8333 23.5,36.1667 23.5,35.5C 23.5,35.1667 23.5,34.8333 23.5,34.5C 24.4916,34.6716 25.1583,34.3382 25.5,33.5 Z"/></g>
<g><path style="opacity:1" fill="#4699c0" d="M 33.5,33.5 C 34.8333,33.5 36.1667,33.5 37.5,33.5C 37.8333,33.5 38.1667,33.5 38.5,33.5C 36.8333,34.1667 35.1667,34.8333 33.5,35.5C 32.5084,35.3284 31.8417,35.6618 31.5,36.5C 30.6618,36.8417 30.3284,37.5084 30.5,38.5C 29.5655,37.4324 29.2322,36.099 29.5,34.5C 30.8333,34.1667 32.1667,33.8333 33.5,33.5 Z"/></g>
<g><path style="opacity:1" fill="#58b3cd" d="M 58.5,30.5 C 58.5,31.8333 58.5,33.1667 58.5,34.5C 58.6332,37.925 57.9665,38.2583 56.5,35.5C 56.1667,34.1667 55.8333,32.8333 55.5,31.5C 56.391,30.8902 57.391,30.5569 58.5,30.5 Z"/></g>
<g><path style="opacity:1" fill="#55adcc" d="M 16.5,30.5 C 16.5,31.1667 16.8333,31.5 17.5,31.5C 18.2114,33.2014 19.5447,34.2014 21.5,34.5C 22.1667,34.8333 22.8333,35.1667 23.5,35.5C 23.5,36.1667 23.5,36.8333 23.5,37.5C 21.8828,36.962 20.2161,36.6287 18.5,36.5C 17.8333,36.5 17.5,36.1667 17.5,35.5C 16.8333,34.5 16.1667,33.5 15.5,32.5C 15.5,32.1667 15.5,31.8333 15.5,31.5C 15.5,30.8333 15.8333,30.5 16.5,30.5 Z"/></g>
<g><path style="opacity:1" fill="#4da8cd" d="M 29.5,34.5 C 29.2322,36.099 29.5655,37.4324 30.5,38.5C 30.5912,40.6977 29.9245,41.0311 28.5,39.5C 28.5,39.1667 28.5,38.8333 28.5,38.5C 28.631,37.7611 28.4643,37.0944 28,36.5C 27.1841,37.8228 26.0174,38.4894 24.5,38.5C 24.3505,37.448 24.5172,36.448 25,35.5C 25.7697,36.5981 26.603,36.5981 27.5,35.5C 28.1667,35.1667 28.8333,34.8333 29.5,34.5 Z"/></g>
<g><path style="opacity:1" fill="#4ba9c9" d="M 33.5,35.5 C 35.1667,35.5 36.8333,35.5 38.5,35.5C 39.1667,36.1667 39.8333,36.8333 40.5,37.5C 39.8333,37.5 39.1667,37.5 38.5,37.5C 37.5,37.5 36.5,37.5 35.5,37.5C 34.5,37.5 33.5,37.5 32.5,37.5C 32.1667,37.5 31.8333,37.5 31.5,37.5C 31.5,37.1667 31.5,36.8333 31.5,36.5C 31.8417,35.6618 32.5084,35.3284 33.5,35.5 Z"/></g>
<g><path style="opacity:1" fill="#53aecb" d="M 40.5,34.5 C 41.1667,34.8333 41.8333,35.1667 42.5,35.5C 43.1098,36.391 43.4431,37.391 43.5,38.5C 42.391,38.4431 41.391,38.1098 40.5,37.5C 39.8333,36.8333 39.1667,36.1667 38.5,35.5C 39.1667,35.1667 39.8333,34.8333 40.5,34.5 Z"/></g>
<g><path style="opacity:1" fill="#54a6c7" d="M 42.5,35.5 C 43.5,35.5 44.5,35.5 45.5,35.5C 45.3284,36.4916 45.6618,37.1583 46.5,37.5C 46.8333,37.5 47.1667,37.5 47.5,37.5C 47.5,38.1667 47.5,38.8333 47.5,39.5C 46.0413,39.5674 44.7079,39.2341 43.5,38.5C 43.4431,37.391 43.1098,36.391 42.5,35.5 Z"/></g>
<g><path style="opacity:1" fill="#53abc9" d="M 55.5,35.5 C 55.8333,36.8333 56.1667,36.8333 56.5,35.5C 57.9665,38.2583 58.6332,37.925 58.5,34.5C 60.1839,37.718 59.5172,40.3846 56.5,42.5C 56.5,42.1667 56.5,41.8333 56.5,41.5C 55.791,40.596 54.791,40.2627 53.5,40.5C 53.5,39.8333 53.5,39.1667 53.5,38.5C 53.6264,36.3784 54.2931,35.3784 55.5,35.5 Z"/></g>
<g><path style="opacity:1" fill="#4da4c9" d="M 17.5,35.5 C 17.5,36.1667 17.8333,36.5 18.5,36.5C 17.4937,37.3957 17.4937,38.0623 18.5,38.5C 20.5,39.1667 22.5,39.8333 24.5,40.5C 24.5,40.8333 24.5,41.1667 24.5,41.5C 24.1583,42.3382 23.4916,42.6716 22.5,42.5C 19.9768,41.6156 17.3102,40.7823 14.5,40C 13.7476,39.3292 13.4142,38.4959 13.5,37.5C 14.1667,37.1667 14.8333,36.8333 15.5,36.5C 16.1667,36.1667 16.8333,35.8333 17.5,35.5 Z"/></g>
<g><path style="opacity:1" fill="#4294be" d="M 28.5,38.5 C 27.8333,38.5 27.5,38.8333 27.5,39.5C 26.8333,39.5 26.5,39.8333 26.5,40.5C 25.8333,40.5 25.1667,40.5 24.5,40.5C 22.5,39.8333 20.5,39.1667 18.5,38.5C 20.1667,38.5 21.8333,38.5 23.5,38.5C 23.8333,38.5 24.1667,38.5 24.5,38.5C 26.0174,38.4894 27.1841,37.8228 28,36.5C 28.4643,37.0944 28.631,37.7611 28.5,38.5 Z"/></g>
<g><path style="opacity:1" fill="#5aaecd" d="M 47.5,36.5 C 48.1667,36.8333 48.8333,37.1667 49.5,37.5C 49.8333,37.5 50.1667,37.5 50.5,37.5C 50.3284,38.4916 50.6618,39.1583 51.5,39.5C 52.1667,39.5 52.5,39.8333 52.5,40.5C 51.391,40.5569 50.391,40.8902 49.5,41.5C 49.1583,40.6618 48.4916,40.3284 47.5,40.5C 47.5,40.1667 47.5,39.8333 47.5,39.5C 47.5,38.8333 47.5,38.1667 47.5,37.5C 47.5,37.1667 47.5,36.8333 47.5,36.5 Z"/></g>
<g><path style="opacity:1" fill="#4e9dc4" d="M 35.5,38.5 C 35.5,38.1667 35.5,37.8333 35.5,37.5C 36.5,37.5 37.5,37.5 38.5,37.5C 39.1667,38.8333 39.8333,38.8333 40.5,37.5C 41.391,38.1098 42.391,38.4431 43.5,38.5C 42.4097,39.8571 41.0764,40.8571 39.5,41.5C 38.6618,41.8417 38.3284,42.5084 38.5,43.5C 38.5,44.5 38.5,45.5 38.5,46.5C 37.8333,46.5 37.1667,46.5 36.5,46.5C 36.5,45.8333 36.5,45.1667 36.5,44.5C 37.8333,43.8333 37.8333,43.1667 36.5,42.5C 38.1751,40.544 37.8418,39.2107 35.5,38.5 Z"/></g>
<g><path style="opacity:1" fill="#4ac0cc" d="M 47.5,40.5 C 48.4916,40.3284 49.1583,40.6618 49.5,41.5C 49.5,42.1667 49.5,42.8333 49.5,43.5C 49.5,44.1667 49.1667,44.5 48.5,44.5C 48.5,43.8333 48.1667,43.5 47.5,43.5C 47.44,42.9569 47.1067,42.6236 46.5,42.5C 45.8589,43.9935 44.8589,44.9935 43.5,45.5C 43.5,45.1667 43.5,44.8333 43.5,44.5C 44.1098,43.609 44.4431,42.609 44.5,41.5C 45.209,40.596 46.209,40.2627 47.5,40.5 Z"/></g>
<g><path style="opacity:1" fill="#55aecf" d="M 27.5,39.5 C 27.8333,39.5 28.1667,39.5 28.5,39.5C 29.1667,40.8333 29.8333,42.1667 30.5,43.5C 28.8007,43.4729 27.4674,42.8062 26.5,41.5C 26.5,41.1667 26.5,40.8333 26.5,40.5C 26.5,39.8333 26.8333,39.5 27.5,39.5 Z"/></g>
<g><path style="opacity:1" fill="#4a97bd" d="M 31.5,37.5 C 31.8333,37.5 32.1667,37.5 32.5,37.5C 32.5,38.1667 32.8333,38.5 33.5,38.5C 33.5774,39.7498 34.244,40.5831 35.5,41C 35.2716,41.3988 34.9382,41.5654 34.5,41.5C 33.2905,41.9321 32.2905,42.5987 31.5,43.5C 31.1667,43.5 30.8333,43.5 30.5,43.5C 29.8333,42.1667 29.1667,40.8333 28.5,39.5C 29.9245,41.0311 30.5912,40.6977 30.5,38.5C 31.1667,38.5 31.5,38.1667 31.5,37.5 Z"/></g>
<g><path style="opacity:1" fill="#54abcc" d="M 33.5,38.5 C 34.1667,38.5 34.8333,38.5 35.5,38.5C 37.8418,39.2107 38.1751,40.544 36.5,42.5C 36.5,43.1667 36.5,43.8333 36.5,44.5C 35.8333,44.5 35.1667,44.5 34.5,44.5C 34.5,43.5 34.5,42.5 34.5,41.5C 34.9382,41.5654 35.2716,41.3988 35.5,41C 34.244,40.5831 33.5774,39.7498 33.5,38.5 Z"/></g>
<g><path style="opacity:1" fill="#4dacc5" d="M 52.5,40.5 C 52.8333,40.5 53.1667,40.5 53.5,40.5C 54.791,40.2627 55.791,40.596 56.5,41.5C 54.0274,41.0882 52.6941,42.0882 52.5,44.5C 51.8333,44.5 51.5,44.8333 51.5,45.5C 51.1667,45.5 50.8333,45.5 50.5,45.5C 50.6716,44.5084 50.3382,43.8417 49.5,43.5C 49.5,42.8333 49.5,42.1667 49.5,41.5C 50.391,40.8902 51.391,40.5569 52.5,40.5 Z"/></g>
<g><path style="opacity:1" fill="#51a0c3" d="M 39.5,41.5 C 40.9354,42.0965 42.602,42.0965 44.5,41.5C 44.4431,42.609 44.1098,43.609 43.5,44.5C 42.5084,44.3284 41.8417,44.6618 41.5,45.5C 40.7777,44.4489 39.7777,43.7822 38.5,43.5C 38.3284,42.5084 38.6618,41.8417 39.5,41.5 Z"/></g>
<g><path style="opacity:1" fill="#56bbd0" d="M 56.5,41.5 C 56.5,41.8333 56.5,42.1667 56.5,42.5C 55.5592,44.0495 54.8925,45.7162 54.5,47.5C 53.5084,47.6716 52.8417,47.3382 52.5,46.5C 52.5,45.8333 52.5,45.1667 52.5,44.5C 52.6941,42.0882 54.0274,41.0882 56.5,41.5 Z"/></g>
<g><path style="opacity:1" fill="#52b0ce" d="M 33.5,44.5 C 33.8333,44.5 34.1667,44.5 34.5,44.5C 35.1667,44.5 35.8333,44.5 36.5,44.5C 36.5,45.1667 36.5,45.8333 36.5,46.5C 36.5,46.8333 36.5,47.1667 36.5,47.5C 35.8333,47.5 35.1667,47.5 34.5,47.5C 33.5,47.5 32.5,47.5 31.5,47.5C 30.1667,47.5 29.5,46.8333 29.5,45.5C 29.8333,45.5 30.1667,45.5 30.5,45.5C 31.609,45.4431 32.609,45.1098 33.5,44.5 Z"/></g>
<g><path style="opacity:1" fill="#4fa2c7" d="M 24.5,41.5 C 25.3957,42.5063 26.0623,42.5063 26.5,41.5C 27.4674,42.8062 28.8007,43.4729 30.5,43.5C 30.8333,43.5 31.1667,43.5 31.5,43.5C 32.4916,43.3284 33.1583,43.6618 33.5,44.5C 32.609,45.1098 31.609,45.4431 30.5,45.5C 27.8568,44.4931 27.5235,44.4931 29.5,45.5C 29.5,46.8333 30.1667,47.5 31.5,47.5C 31.2648,48.0967 30.7648,48.4301 30,48.5C 27.9534,47.3906 25.7867,46.7239 23.5,46.5C 23.5674,45.0413 23.2341,43.7079 22.5,42.5C 23.4916,42.6716 24.1583,42.3382 24.5,41.5 Z"/></g>
<g><path style="opacity:1" fill="#54aacb" d="M 38.5,43.5 C 39.7777,43.7822 40.7777,44.4489 41.5,45.5C 41.8333,46.5 42.5,47.1667 43.5,47.5C 43.5,47.8333 43.5,48.1667 43.5,48.5C 43.1667,48.5 42.8333,48.5 42.5,48.5C 41.5,48.5 40.5,48.5 39.5,48.5C 39.5,47.8333 39.1667,47.5 38.5,47.5C 38.5,47.1667 38.5,46.8333 38.5,46.5C 38.5,45.5 38.5,44.5 38.5,43.5 Z"/></g>
<g><path style="opacity:1" fill="#4abbca" d="M 47.5,43.5 C 46.2576,45.346 46.591,45.6793 48.5,44.5C 49.1667,44.5 49.5,44.1667 49.5,43.5C 50.3382,43.8417 50.6716,44.5084 50.5,45.5C 48.4832,46.5294 46.4832,47.5294 44.5,48.5C 44.1667,48.5 43.8333,48.5 43.5,48.5C 43.5,48.1667 43.5,47.8333 43.5,47.5C 43.5,46.8333 43.5,46.1667 43.5,45.5C 44.8589,44.9935 45.8589,43.9935 46.5,42.5C 47.1067,42.6236 47.44,42.9569 47.5,43.5 Z M 47.5,43.5 C 48.1667,43.5 48.5,43.8333 48.5,44.5C 46.591,45.6793 46.2576,45.346 47.5,43.5 Z"/></g>
<g><path style="opacity:1" fill="#43b4c5" d="M 50.5,45.5 C 50.8333,45.5 51.1667,45.5 51.5,45.5C 51.5,45.8333 51.5,46.1667 51.5,46.5C 51.2178,47.7777 50.5511,48.7777 49.5,49.5C 48.8333,49.5 48.1667,49.5 47.5,49.5C 46.209,49.7373 45.209,49.404 44.5,48.5C 46.4832,47.5294 48.4832,46.5294 50.5,45.5 Z"/></g>
<g><path style="opacity:1" fill="#56aecc" d="M 34.5,47.5 C 35.1667,47.5 35.8333,47.5 36.5,47.5C 37.1667,47.5 37.8333,47.5 38.5,47.5C 39.1667,47.5 39.5,47.8333 39.5,48.5C 40.5,48.5 41.5,48.5 42.5,48.5C 42.7373,49.791 42.404,50.791 41.5,51.5C 40.4722,48.9017 39.4722,48.9017 38.5,51.5C 37.1667,50.1667 35.8333,48.8333 34.5,47.5 Z"/></g>
<g><path style="opacity:1" fill="#49a6c3" d="M 51.5,46.5 C 51.8333,46.5 52.1667,46.5 52.5,46.5C 52.8417,47.3382 53.5084,47.6716 54.5,47.5C 53.7377,49.2624 52.4044,50.2624 50.5,50.5C 50.5,49.8333 50.1667,49.5 49.5,49.5C 50.5511,48.7777 51.2178,47.7777 51.5,46.5 Z"/></g>
<g><path style="opacity:1" fill="#43a5be" d="M 47.5,49.5 C 48.1667,49.5 48.8333,49.5 49.5,49.5C 50.1667,49.5 50.5,49.8333 50.5,50.5C 49.3588,51.339 48.0255,52.0057 46.5,52.5C 45.8933,52.3764 45.56,52.0431 45.5,51.5C 46.5,51.1667 47.1667,50.5 47.5,49.5 Z"/></g>
<g><path style="opacity:1" fill="#57b3cc" d="M 41.5,51.5 C 42.057,53.2352 42.3903,54.9018 42.5,56.5C 40.478,55.493 39.1447,53.8263 38.5,51.5C 39.4722,48.9017 40.4722,48.9017 41.5,51.5 Z"/></g>
<g><path style="opacity:1" fill="#55b6d1" d="M 42.5,48.5 C 42.8333,48.5 43.1667,48.5 43.5,48.5C 43.8333,48.5 44.1667,48.5 44.5,48.5C 45.209,49.404 46.209,49.7373 47.5,49.5C 47.1667,50.5 46.5,51.1667 45.5,51.5C 45.0707,52.9527 44.904,54.6194 45,56.5C 44.2303,57.5981 43.397,57.5981 42.5,56.5C 42.3903,54.9018 42.057,53.2352 41.5,51.5C 42.404,50.791 42.7373,49.791 42.5,48.5 Z"/></g>
</svg>
